<svg width="302" height="302" viewBox="0 0 618 559" fill="none" xmlns="http://www.w3.org/2000/svg">
<path d="M276.97 282C275.612 282.316 274.076 282.683 272.385 283.103C265.418 284.831 255.816 287.447 245.277 290.999C224.264 298.08 199.268 308.962 184.115 324.115C168.962 339.268 158.08 364.264 150.999 385.277C147.447 395.816 144.831 405.418 143.103 412.385C142.683 414.076 142.316 415.612 142 416.97C141.684 415.612 141.317 414.076 140.897 412.385C139.169 405.418 136.553 395.816 133.001 385.277C125.92 364.264 115.038 339.268 99.8847 324.115C84.7319 308.962 59.7357 298.08 38.7234 290.999C28.1836 287.447 18.5817 284.831 11.6146 283.103C9.92369 282.683 8.38756 282.316 7.03036 282C8.38756 281.684 9.92369 281.317 11.6146 280.897C18.5817 279.169 28.1836 276.553 38.7234 273.001C59.7357 265.92 84.7319 255.038 99.8847 239.885C115.038 224.732 125.92 199.736 133.001 178.723C136.553 168.184 139.169 158.582 140.897 151.615C141.317 149.924 141.684 148.388 142 147.03C142.316 148.388 142.683 149.924 143.103 151.615C144.831 158.582 147.447 168.184 150.999 178.723C158.08 199.736 168.962 224.732 184.115 239.885C199.268 255.038 224.264 265.92 245.277 273.001C255.816 276.553 265.418 279.169 272.385 280.897C274.076 281.317 275.612 281.684 276.97 282Z" stroke="#8F9133" stroke-width="3"/>
<path d="M610.824 349.5C608.195 350.091 604.888 350.863 601.036 351.819C590.771 354.365 576.624 358.22 561.097 363.452C530.11 373.895 493.37 389.908 471.139 412.139C448.908 434.37 432.895 471.11 422.452 502.097C417.22 517.624 413.365 531.771 410.819 542.036C409.863 545.888 409.091 549.195 408.5 551.824C407.909 549.195 407.137 545.888 406.181 542.036C403.635 531.771 399.78 517.624 394.548 502.097C384.105 471.11 368.092 434.37 345.861 412.139C323.63 389.908 286.89 373.895 255.903 363.452C240.376 358.22 226.229 354.365 215.964 351.819C212.112 350.863 208.805 350.091 206.176 349.5C208.805 348.909 212.112 348.137 215.964 347.181C226.229 344.635 240.376 340.78 255.903 335.548C286.89 325.105 323.63 309.092 345.861 286.861C368.092 264.63 384.105 227.89 394.548 196.903C399.78 181.376 403.635 167.229 406.181 156.964C407.137 153.112 407.909 149.805 408.5 147.176C409.091 149.805 409.863 153.112 410.819 156.964C413.365 167.229 417.22 181.376 422.452 196.903C432.895 227.89 448.908 264.63 471.139 286.861C493.37 309.092 530.11 325.105 561.097 335.548C576.624 340.78 590.771 344.635 601.036 347.181C604.888 348.137 608.195 348.909 610.824 349.5Z" stroke="#8F9133" stroke-width="3"/>
<path d="M199 202C199 202 204.377 229.715 216.331 241.669C228.285 253.623 256 259 256 259C256 259 228.285 264.377 216.331 276.331C204.377 288.285 199 316 199 316C199 316 193.623 288.285 181.669 276.331C169.715 264.377 142 259 142 259C142 259 169.715 253.623 181.669 241.669C193.623 229.715 199 202 199 202Z" fill="#8F9133"/>
<path d="M337.5 148C337.5 148 346.132 192.489 365.321 211.679C384.511 230.868 429 239.5 429 239.5C429 239.5 384.511 248.132 365.321 267.321C346.132 286.511 337.5 331 337.5 331C337.5 331 328.868 286.511 309.679 267.321C290.489 248.132 246 239.5 246 239.5C246 239.5 290.489 230.868 309.679 211.679C328.868 192.489 337.5 148 337.5 148Z" fill="#8F9133"/>
<path d="M245.5 0C245.5 0 256.018 54.2139 279.402 77.5978C302.786 100.982 357 111.5 357 111.5C357 111.5 302.786 122.018 279.402 145.402C256.018 168.786 245.5 223 245.5 223C245.5 223 234.982 168.786 211.598 145.402C188.214 122.018 134 111.5 134 111.5C134 111.5 188.214 100.982 211.598 77.5978C234.982 54.2139 245.5 0 245.5 0Z" fill="#8F9133"/>
</svg>
